<?xml version="1.0" encoding="UTF-8"?><svg id="Layer_2" xmlns="http://www.w3.org/2000/svg" viewBox="0 0 553.15 563.4"><defs><style>.cls-1{fill:#fa73ff;}</style></defs><g id="Layer_1-2"><g><path class="cls-1" d="M.08,276.9c.51-56.04,15.22-106.32,45.76-151.57,24.77-36.69,56.57-66.12,94.87-88.41C197.98,3.61,259.43-6.95,324.48,4.39c69.72,12.15,125.93,47.72,170.97,101.54,10.97,13.11,21.24,26.91,30.69,41.14,7.33,11.04,10.39,23.98,11.96,37.24,.58,4.86,2.78,9.51,4.06,14.31,19.82,74.27,13.1,146.22-22.3,214.3-27.98,53.82-69.63,95.39-124.57,121.93-76.8,37.11-154.91,38.16-232.38,2.5-56.16-25.85-98.38-67.58-128.12-121.71C10.82,372.03-1.1,325.29,.08,276.9Zm143.09,149.32c.49-1.31,.74-1.73,.81-2.18,3.24-20.37,6.28-40.77,9.74-61.11,5.85-34.44,11.99-68.83,17.83-103.27,.24-1.39-.88-3.96-2.05-4.5-21.62-10.07-36.41-27.08-47.89-47.28-19.02-33.48-12.53-65.91,10.24-92.44,16.05-18.7,36.09-32.43,57.13-44.75,70.31-41.16,144.4-15.82,185.71,33.27,5.09,6.05,8.08,13.97,11.47,21.3,1.54,3.32-.04,5.56-4.35,5.48-9.99-.19-19.98-.16-29.97,.06-3.17,.07-4.41-.96-4.8-4.08-1.32-10.61-6.16-19.6-13.46-27.27-25.64-26.94-57.48-34.6-92.8-27.6-37.59,7.45-67.67,28.66-93.24,56.38-13.76,14.91-19.84,32.79-14.71,53.02,6.67,26.33,23.66,44.58,47.26,56.9,4.58,2.39,10.13,3.4,15.35,3.97,23.16,2.52,39.48-15.98,34.01-38.74-1.78-7.38-4.8-14.52-7.72-21.57-10.15-24.55-10.34-48.9,1.47-72.87,2.13-4.32,5.51-8.45,9.28-11.44,5.75-4.56,13.38-.68,13.6,6.71,.09,2.94-1.31,6.05-2.54,8.86-1.58,3.63-4.16,6.88-5.46,10.58-6.18,17.6-5.01,34.91,2.19,52.09,3.27,7.8,6.12,15.86,8.2,24.05,3.32,13.07,1.66,25.98-4.9,37.72-10.22,18.28-26.43,25.98-47.1,24.48-3.41-.25-4.94,.3-5.56,4.15-10.37,63.37-20.9,126.72-31.44,190.07-2.54,15.27-5.3,30.5-7.79,45.77-.31,1.92-.26,5.19,.82,5.84,6.24,3.71,12.86,6.91,22.91,8.98,19.18,3.95,16.72,9.52,35.23,13.29,12.9,2.63,11.33-.64,30.97,1.79,17.93,2.22,25.17,5.67,31.56,1.19,5.35-3.75,6.92-10.82,7.4-16.24-2.31-9.39-7.95-14.92-15.98-17.85-11.91-4.35-23.77-3.41-35.64,.93-2.45,.89-6.29,.37-8.5-1.05-3.26-2.09-4.5-6.19-2.3-9.73,1.76-2.83,4.33-5.62,7.22-7.18,8.11-4.4,17.03-5.43,26.16-4.45,2.99,.32,5.24,.38,6.31-3.49,7.11-25.73-14.6-55.89-41.39-57.25-9.95-.51-19.12,1.83-27.54,7.2-3.7,2.36-7.56,2.81-10.98-.49-2.69-2.6-2.71-7.95-.09-11.57,1.15-1.6,2.49-3.29,4.15-4.25,4.72-2.74,9.37-6.17,14.52-7.46,23.9-5.98,45.17-1.15,62.64,17.04,1.74,1.81,3.47,3.62,5.38,5.63,0-7.73,.18-14.7-.04-21.65-.31-9.65-1.08-19.28-1.33-28.92-.15-5.76,3.24-9.7,8.1-10.33,5.32-.69,9.97,2.68,11.35,8.31,.27,1.12,.28,2.31,.35,3.47,2.3,39.05,4.59,78.09,6.89,117.14,.06,.98-.1,2.29,.45,2.88,2.62,2.81,4.02,5.76,4.55,6.19,2.35,1.9,4.74,9.1,4.52,33.14,3.79,1.44,9.81,3.15,17.27,2.98,11.95-.28,20.63-5.24,24.42-7.74,1.03-13.87-1.55-19.23-4.04-21.56-6.54-6.13-7.69-6.83-7.69-6.83-3.32-1.85-4.58-4.24-4.75-7.97-1-21.78-2.2-43.55-3.34-65.32-.65-12.3-1.45-24.59-1.94-36.9-.38-9.66,5.17-14.14,14.47-12.08,.6,.13,1.25,.02,2.36,.02-2.74-39.93-5.47-79.69-8.25-120.06-2.73,.67-4.91,1.39-7.15,1.73-7.71,1.2-15.4,2.75-23.16,3.26-7.97,.52-13.36-3.53-13.43-8.86-.07-5.36,4.37-8.69,12.45-9.57,20.86-2.28,40.27-8.79,57.78-20.47,5.19-3.46,9.97-7.55,15.03-11.42-4.37-3.73-8.1-6.91-11.89-10.14-1.85,1.7-3.56,3.52-5.52,5.03-7.16,5.54-16.49,5.54-21.95,0-2.54-2.58-3.94-5.71-1.47-8.93,2.33-3.03,5.17-1.81,8-.18,6.91,3.98,15.81-.78,16.39-8.94,.41-5.77,.08-11.6,.08-17.37-9.79-3.15-16.99-8.62-20.39-18.14-2.78-7.78,.24-14.65,7.08-14.93,11.47-.47,22.98-.53,34.45-.09,7.28,.28,11.62,7.28,9.04,13.99-3.09,8.04-7.93,14.6-16.86,17.08-1.2,.33-3.07,1.59-3.07,2.42-.02,6.78-.27,13.66,.8,20.31,.7,4.36,4.52,8.28,9.12,7.79,2.88-.31,6.29-3.55,7.92-6.37,5.41-9.34,5.97-19.48,3.6-29.97-.61-2.69-.79-6.19,.44-8.44,2.9-5.31,4.28-10.69,4.28-16.68,0-2.14,.66-4.86,2.06-6.32,12.77-13.3,27.69-23.22,46.4-25.2,10.24-1.08,20.69-.19,31.73-.19C401.43,36.37,319.57,8.1,223.21,26.62,133.31,43.89,46.8,122.95,26.59,222.57c-17.57,86.64,3.03,163.6,59.85,230.97,.44-1.42,.19-2.68-.19-3.88-5.47-17.26-7.09-34.83-4.07-52.73,2.96-17.53,10.69-32.45,24.59-43.83,3.51-2.87,7.55-4.49,11.99-1.98,4.08,2.3,3.48,6.25,3.5,10.15,.06,10.44-.63,21.05,.96,31.29,2.06,13.27,8.89,24.51,19.94,33.67Zm288.15-93.88c-2.21,4.08-4.4,7.98-6.46,11.94-2.15,4.13-4.44,8.21-6.22,12.5-4.1,9.9-17.07,11.3-24.9,2.84-1.75-1.89-3.2-4.06-4.72-6.02-9.04,12.41-22.38,8.68-34.27,9.63-.08,.83-.2,1.32-.17,1.81,2.38,36.03,4.75,72.07,7.32,108.09,.09,1.27,2.1,3.18,3.48,3.45,7.37,1.46,13.91,4.33,19.48,9.46,7.1,6.54,11.54,14.41,12.08,24.33,34.24-16.09,85.28-63.58,110.94-119.36,26.72-58.08,28.94-121.47,20.09-160.68-10.91,24.19-27.67,42.3-54.11,50.56,8.72,14.3,9.1,28.29-1.41,40.81-10.8,12.87-25.02,16.14-41.12,10.63Zm11.03-70.92c-5.17-4.64-10.19-8.08-13.86-12.61-11.64-14.38-15.21-31.15-12.76-49.27,3.06-22.68,12.97-41.54,32.27-54.49,16.66-11.18,36.23-9.53,48.96,3.41,12.88,13.09,17.9,29.22,16.39,47.04-2.39,28.11-15.04,49.58-42.17,60.9-2.26,.94-3.82,3.53-5.71,5.36,.4,.66,.8,1.31,1.2,1.97,5.31-2.07,10.96-3.54,15.85-6.33,14.02-7.99,24.08-19.73,30.53-34.55,8.35-19.18,9.74-38.72,1.87-58.23-11.77-29.17-39.01-42.81-69.56-40.02-17.94,1.64-32.17,10.19-41.92,25.52-1.27,2-2.12,5.16-1.51,7.32,5.78,20.69,2.5,39.47-10.79,56.48-.98,1.25-1.69,3.32-1.44,4.84,3.64,22.22,25.19,41.94,47.83,43.83,1.56,.13,3.2-.74,4.83-1.15Zm56.48-68.9c-.97-5.37-1.38-10.91-3.02-16.07-7.1-22.38-28.37-27.78-44.59-10.98-16.65,17.24-21.37,38.05-14.23,60.85,5.84,18.64,22.18,23.66,37.77,11.86,14.94-11.31,24.11-26,24.06-45.65Zm-148.91,98.11c-.31,.81-.54,1.12-.52,1.42,1.22,15.92,2.38,31.84,3.86,47.73,.13,1.35,2.2,3.29,3.69,3.64,11.89,2.79,22.76-1.93,33.14-6.33,3.66-1.55,5.23-8.03,7.74-12.27,.85-1.43,1.67-2.88,2.43-4.36,6.6-12.83,13.19-25.66,19.67-38.28-3.24-3.35-5.58-2.76-8.64-.49-18.68,13.89-38.49,21.13-61.37,8.94Zm-216.23,193.4c2.17-11.58,4.46-23.08,6.33-34.65,.21-1.27-1.59-3.4-2.99-4.32-9.71-6.4-18.25-14.04-24.01-24.2-3.93-6.94-6.88-14.43-10.09-21.3-7.67,24.31,9.26,71.56,30.75,84.47Zm239.77-248.97c-8.6,4.84-16.87,9.34-24.94,14.18-1.22,.73-2.51,3.42-2.06,4.5,2.12,5.16,3.98,10.78,7.47,14.95,11.04,13.15,29.86,11.97,43.33-2.24-10.2-8.96-18.77-19.19-23.8-31.38Zm75.35,52.97c-8.93-.14-17.83,7.43-17.98,15.31-.15,7.86,4.78,12.47,13.42,12.51,8.95,.05,17.32-6.98,17.35-14.56,.02-7.2-5.71-13.15-12.78-13.26Zm-95.33,208.13c3.59,8.73,7.18,17.45,10.78,26.18l14.85-5.72c.97-13.42-14.15-24.78-25.62-20.46Z"/><path class="cls-1" d="M281.01,139.48c.07,7.31-6.21,14.22-13.13,14.45-7.12,.23-13.99-6.98-13.98-14.68,.02-7.25,6.13-14,12.76-14.08,7.5-.1,14.28,6.67,14.35,14.32Z"/><path class="cls-1" d="M316.01,120.21c.23-5.19,4.09-8.84,9.03-8.55,5.01,.29,8.66,4.62,8.37,9.94-.27,4.99-4.07,8.61-8.74,8.33-5.04-.29-8.89-4.61-8.66-9.72Z"/></g></g></svg>